<svg xmlns="http://www.w3.org/2000/svg" width="101.83" height="78.5" viewBox="0 0 101.83 78.5"><defs><style>.a{fill:#fff;}</style></defs><title>circles-decoratio</title><circle class="a" cx="8.25" cy="8.25" r="8.25"/><circle class="a" cx="29.58" cy="8.25" r="8.25"/><circle class="a" cx="50.92" cy="8.25" r="8.25"/><circle class="a" cx="72.25" cy="8.25" r="8.25"/><circle class="a" cx="93.58" cy="8.25" r="8.25"/><circle class="a" cx="29.58" cy="28.92" r="8.25"/><circle class="a" cx="50.92" cy="28.92" r="8.25"/><circle class="a" cx="72.25" cy="28.92" r="8.25"/><circle class="a" cx="93.58" cy="28.92" r="8.25"/><circle class="a" cx="29.58" cy="49.58" r="8.25"/><circle class="a" cx="50.92" cy="49.58" r="8.25"/><circle class="a" cx="72.25" cy="49.58" r="8.25"/><circle class="a" cx="93.58" cy="49.58" r="8.25"/><circle class="a" cx="29.58" cy="70.25" r="8.25"/><circle class="a" cx="50.92" cy="70.25" r="8.25"/><circle class="a" cx="72.25" cy="70.25" r="8.25"/><circle class="a" cx="93.58" cy="70.25" r="8.25"/><circle class="a" cx="8.25" cy="28.92" r="8.25"/><circle class="a" cx="8.25" cy="49.58" r="8.25"/><circle class="a" cx="8.25" cy="70.25" r="8.25"/></svg>