<svg xmlns="http://www.w3.org/2000/svg" width="236.64" height="62.79" viewBox="0 0 236.64 62.79"><defs><style>.a{fill:#fff;}.b{opacity:0.33;}</style></defs><title>SFMediaLogo</title><path class="a" d="M18.07,79.3a18.74,18.74,0,0,1-8.16-6.19,16.92,16.92,0,0,1-3.23-9.88H21.92a7.33,7.33,0,0,0,2.26,5,7.23,7.23,0,0,0,5,1.72,7.86,7.86,0,0,0,5-1.47,4.91,4.91,0,0,0,1.84-4.06,4.8,4.8,0,0,0-1.47-3.6A11.56,11.56,0,0,0,31,58.46a57.43,57.43,0,0,0-6.07-2.1,66.36,66.36,0,0,1-9.29-3.51,17.14,17.14,0,0,1-6.2-5.19,14.48,14.48,0,0,1-2.59-9q0-8.21,5.94-12.85T28.28,21.2q9.72,0,15.66,4.65T50.3,38.78H34.81a6.08,6.08,0,0,0-2.09-4.48,7.43,7.43,0,0,0-4.94-1.63,6.17,6.17,0,0,0-4.19,1.38A5,5,0,0,0,22,38a4.92,4.92,0,0,0,2.68,4.44,44.35,44.35,0,0,0,8.37,3.43,76.73,76.73,0,0,1,9.25,3.68,17.68,17.68,0,0,1,6.16,5.11,13.67,13.67,0,0,1,2.59,8.62,16.94,16.94,0,0,1-2.55,9.13A17.9,17.9,0,0,1,41.09,79,25.35,25.35,0,0,1,29.62,81.4,30.1,30.1,0,0,1,18.07,79.3Z" transform="translate(-6.68 -18.6)"/><path class="a" d="M130.68,22.1V57.21h-4.61V31L114.4,57.21h-3.25L99.43,31V57.21H94.82V22.1h5l13,29,13-29Z" transform="translate(-6.68 -18.6)"/><path class="a" d="M163.71,45H141.49a8.73,8.73,0,0,0,9,8.73,8.57,8.57,0,0,0,5-1.39,7.43,7.43,0,0,0,2.81-3.73h5a12,12,0,0,1-4.46,6.52,13.5,13.5,0,0,1-8.32,2.51,14,14,0,0,1-7.08-1.78,12.52,12.52,0,0,1-4.89-5,15.58,15.58,0,0,1-1.78-7.58,15.85,15.85,0,0,1,1.72-7.56,12.17,12.17,0,0,1,4.85-5A14.49,14.49,0,0,1,150.52,29a14,14,0,0,1,7,1.73,11.94,11.94,0,0,1,4.69,4.74,14,14,0,0,1,1.65,6.82A27.54,27.54,0,0,1,163.71,45Zm-5.79-8.29a7.5,7.5,0,0,0-3.17-2.89,9.84,9.84,0,0,0-4.43-1,8.56,8.56,0,0,0-6,2.23,9.11,9.11,0,0,0-2.81,6.19h17.55A8.5,8.5,0,0,0,157.92,36.74Z" transform="translate(-6.68 -18.6)"/><path class="a" d="M170,35.73a12.49,12.49,0,0,1,4.74-5A13,13,0,0,1,181.46,29a12.55,12.55,0,0,1,6,1.5,10.83,10.83,0,0,1,4.26,3.93V19.67h4.67V57.21h-4.67V52a10.76,10.76,0,0,1-4.06,4.09,12.13,12.13,0,0,1-6.29,1.6,12.66,12.66,0,0,1-11.46-7,16,16,0,0,1-1.73-7.51A15.59,15.59,0,0,1,170,35.73Zm20.54,2.05a8.88,8.88,0,0,0-3.42-3.58,9.71,9.71,0,0,0-9.46,0,8.76,8.76,0,0,0-3.4,3.55,11.26,11.26,0,0,0-1.27,5.48,11.49,11.49,0,0,0,1.27,5.55,8.93,8.93,0,0,0,3.4,3.61,9.27,9.27,0,0,0,4.72,1.24,9.42,9.42,0,0,0,4.74-1.24,8.84,8.84,0,0,0,3.42-3.61,11.37,11.37,0,0,0,1.27-5.5A11.26,11.26,0,0,0,190.49,37.78Z" transform="translate(-6.68 -18.6)"/><path class="a" d="M204.39,24a3.15,3.15,0,0,1,2.24-5.38,2.89,2.89,0,0,1,2.15.92,3.24,3.24,0,0,1,0,4.46,2.88,2.88,0,0,1-2.15.91A3,3,0,0,1,204.39,24Zm4.47,5.43v27.8h-4.62V29.41Z" transform="translate(-6.68 -18.6)"/><path class="a" d="M216.72,35.73a12.49,12.49,0,0,1,4.74-5A13,13,0,0,1,228.19,29a12.35,12.35,0,0,1,6.34,1.58,10.33,10.33,0,0,1,4,3.95V29.41h4.67v27.8h-4.67V52a10.89,10.89,0,0,1-4.08,4,12.26,12.26,0,0,1-6.32,1.6,12.57,12.57,0,0,1-6.69-1.83,12.78,12.78,0,0,1-4.72-5.12A16,16,0,0,1,215,43.21,15.58,15.58,0,0,1,216.72,35.73Zm20.55,2.05a9,9,0,0,0-3.43-3.58,9.71,9.71,0,0,0-9.46,0,8.83,8.83,0,0,0-3.4,3.55,11.37,11.37,0,0,0-1.27,5.48A11.6,11.6,0,0,0,221,48.76a9,9,0,0,0,3.4,3.61,9.27,9.27,0,0,0,4.72,1.24,9.42,9.42,0,0,0,4.74-1.24,8.93,8.93,0,0,0,3.43-3.61,11.48,11.48,0,0,0,1.26-5.5A11.37,11.37,0,0,0,237.27,37.78Z" transform="translate(-6.68 -18.6)"/><g class="b"><path class="a" d="M106,77.55H99.35l-1.11,3.19H94.71l6-16.8h3.91l6,16.8h-3.56Zm-.92-2.7-2.43-7-2.43,7Z" transform="translate(-6.68 -18.6)"/><path class="a" d="M131,69a3.92,3.92,0,0,0-1.59-1.61,4.8,4.8,0,0,0-2.35-.56,5.15,5.15,0,0,0-2.65.68,4.64,4.64,0,0,0-1.8,1.92,6.25,6.25,0,0,0-.65,2.89,6.18,6.18,0,0,0,.66,2.93,4.69,4.69,0,0,0,1.84,1.93,5.51,5.51,0,0,0,2.74.67,4.77,4.77,0,0,0,3.15-1A4.87,4.87,0,0,0,132,74h-5.77V71.41h9.09v2.94a7.74,7.74,0,0,1-1.44,3.24A8.13,8.13,0,0,1,131,80a8.4,8.4,0,0,1-3.91.9,8.86,8.86,0,0,1-4.39-1.1,8,8,0,0,1-3.08-3,8.77,8.77,0,0,1-1.11-4.42,8.87,8.87,0,0,1,1.11-4.44,8,8,0,0,1,3.08-3,8.81,8.81,0,0,1,4.37-1.1A8.69,8.69,0,0,1,132,65.13,7.05,7.05,0,0,1,134.89,69Z" transform="translate(-6.68 -18.6)"/><path class="a" d="M147.54,66.68v4.2h5.65v2.67h-5.65V78h6.37v2.74h-9.74V63.94h9.74v2.74Z" transform="translate(-6.68 -18.6)"/><path class="a" d="M177.7,80.74h-3.37L166.7,69.23V80.74h-3.36V63.94h3.36l7.63,11.54V63.94h3.37Z" transform="translate(-6.68 -18.6)"/><path class="a" d="M198.81,64v2.72h-4.48V80.74H191V66.68H186.5V64Z" transform="translate(-6.68 -18.6)"/><path class="a" d="M211,64V74.35a3.57,3.57,0,0,0,.89,2.61,3.36,3.36,0,0,0,2.5.9,3.42,3.42,0,0,0,2.53-.9,3.57,3.57,0,0,0,.89-2.61V64h3.39V74.32a6.65,6.65,0,0,1-.93,3.62,5.87,5.87,0,0,1-2.48,2.23,7.93,7.93,0,0,1-3.45.74,7.74,7.74,0,0,1-3.4-.74,5.72,5.72,0,0,1-2.42-2.23,6.91,6.91,0,0,1-.89-3.62V64Z" transform="translate(-6.68 -18.6)"/><path class="a" d="M239.42,80.74l-3.7-6.54h-1.59v6.54h-3.36V64h6.3a7.43,7.43,0,0,1,3.31.68,4.8,4.8,0,0,1,2.06,1.86,5.18,5.18,0,0,1-.28,5.6,4.94,4.94,0,0,1-2.86,1.84l4,6.8Zm-5.29-9.06H237a2.81,2.81,0,0,0,2-.66,2.46,2.46,0,0,0,.67-1.84,2.33,2.33,0,0,0-.67-1.79,2.85,2.85,0,0,0-2-.64h-2.82Z" transform="translate(-6.68 -18.6)"/></g><path class="a" d="M91.39,22V33.51h-24V45.9H85.36V57H67.44V80.81H53.13V22Z" transform="translate(-6.68 -18.6)"/></svg>