<svg xmlns="http://www.w3.org/2000/svg" xmlns:xlink="http://www.w3.org/1999/xlink" aria-hidden="true" role="img" class="iconify iconify--logos" width="31.88" height="32" preserveAspectRatio="xMidYMid meet" viewBox="0 0 318.12 319.44"><title>sfmediaicon</title><path d="M100.51,226.07q7.3-6,7.3-16.25a18.79,18.79,0,0,0-6-14.27,44.38,44.38,0,0,0-14.26-9.29A216.88,216.88,0,0,0,63.69,178Q41.15,171,26.87,164A68,68,0,0,1,2.33,143.47c-.16-.21-.31-.43-.47-.65A162.61,162.61,0,0,0,.94,160a159.45,159.45,0,0,0,10.21,56.29C26.27,224,48,231.38,76.57,231.62,85,231.69,95.65,229.83,100.51,226.07Z" transform="translate(-0.94 -0.28)"/><path d="M227.06,136.51h91.6A158.59,158.59,0,0,0,303,87.41H227.06Z" transform="translate(-0.94 -0.28)"/><path d="M227.06,180.62V305.3a159.88,159.88,0,0,0,92-124.68Z" transform="translate(-0.94 -0.28)"/><path d="M170.33,42h97.94A159.7,159.7,0,0,0,54.75,40.46,129.3,129.3,0,0,1,77,38.65q38.48,0,62,18.58,23.55,18.24,25.21,51.08H102.84q-.68-11.28-8.3-17.58Q86.92,84.1,75,84.09q-10.27,0-16.58,5.64Q52.08,95,52.08,105.32q0,11.28,10.62,17.59t33.17,13.6q22.56,7.62,36.49,14.59a69.41,69.41,0,0,1,24.55,20.24q10.28,13.26,10.28,34.16a66.3,66.3,0,0,1-10.28,36.16,67,67,0,0,1-33.81,28.58c-14,5.54-41.08,9.8-58.75,9-3.76-.16-7.29-.38-10.63-.64a159.12,159.12,0,0,0,106.94,41.09c3.25,0,6.47-.11,9.67-.3Z" transform="translate(-0.94 -0.28)"/></svg>